<svg width="103" height="111" viewBox="0 0 103 111" fill="none" xmlns="http://www.w3.org/2000/svg">
<path d="M0 110.33C0 90.1719 16.3416 73.8303 36.5 73.8303H66.3532C86.5116 73.8303 102.853 90.1719 102.853 110.33V111H0V110.33Z" fill="white"/>
<path fill-rule="evenodd" clip-rule="evenodd" d="M66.3532 74.3303H36.5C16.6178 74.3303 0.5 90.4481 0.5 110.33V110.5H102.353V110.33C102.353 90.4481 86.2355 74.3303 66.3532 74.3303ZM36.5 73.8303C16.3416 73.8303 0 90.1719 0 110.33V111H102.853V110.33C102.853 90.1719 86.5116 73.8303 66.3532 73.8303H36.5Z" fill="black"/>
<path d="M72.812 77.3946C72.812 83.8624 63.1235 89.1056 51.1721 89.1056C39.2207 89.1056 29.5322 83.8624 29.5322 77.3946C29.5322 70.9268 39.2207 65.6836 51.1721 65.6836C63.1235 65.6836 72.812 70.9268 72.812 77.3946Z" fill="white"/>
<path fill-rule="evenodd" clip-rule="evenodd" d="M66.2359 85.2358C70.0854 83.1526 72.312 80.3577 72.312 77.3946C72.312 74.4315 70.0854 71.6367 66.2359 69.5534C62.4062 67.4809 57.0813 66.1836 51.1721 66.1836C45.263 66.1836 39.9381 67.4809 36.1084 69.5534C32.2589 71.6367 30.0322 74.4315 30.0322 77.3946C30.0322 80.3577 32.2589 83.1526 36.1084 85.2358C39.9381 87.3083 45.263 88.6056 51.1721 88.6056C57.0813 88.6056 62.4062 87.3083 66.2359 85.2358ZM51.1721 89.1056C63.1235 89.1056 72.812 83.8624 72.812 77.3946C72.812 70.9268 63.1235 65.6836 51.1721 65.6836C39.2207 65.6836 29.5322 70.9268 29.5322 77.3946C29.5322 83.8624 39.2207 89.1056 51.1721 89.1056Z" fill="black"/>
<path d="M70.2662 76.1217C70.2662 81.8865 61.7175 86.5597 51.1722 86.5597C40.6268 86.5597 32.0781 81.8865 32.0781 76.1217C32.0781 70.3569 40.6268 65.6836 51.1722 65.6836C61.7175 65.6836 70.2662 70.3569 70.2662 76.1217Z" fill="#DFADA2"/>
<path fill-rule="evenodd" clip-rule="evenodd" d="M64.4338 83.0638C67.8211 81.2121 69.7662 78.7359 69.7662 76.1217C69.7662 73.5074 67.8211 71.0313 64.4338 69.1796C61.0653 67.3381 56.3775 66.1836 51.1722 66.1836C45.9668 66.1836 41.2791 67.3381 37.9105 69.1796C34.5232 71.0313 32.5781 73.5074 32.5781 76.1217C32.5781 78.7359 34.5232 81.2121 37.9105 83.0638C41.2791 84.9053 45.9668 86.0597 51.1722 86.0597C56.3775 86.0597 61.0653 84.9053 64.4338 83.0638ZM51.1722 86.5597C61.7175 86.5597 70.2662 81.8865 70.2662 76.1217C70.2662 70.3569 61.7175 65.6836 51.1722 65.6836C40.6268 65.6836 32.0781 70.3569 32.0781 76.1217C32.0781 81.8865 40.6268 86.5597 51.1722 86.5597Z" fill="black"/>
<path d="M16.2935 35.6422C16.2935 15.9575 32.251 0 51.9357 0C71.6203 0 87.5779 15.9576 87.5779 35.6422V47.0238C87.5779 65.2031 72.8406 79.9404 54.6612 79.9404H49.2101C31.0307 79.9404 16.2935 65.2031 16.2935 47.0237V35.6422Z" fill="#F2CFC7"/>
<path fill-rule="evenodd" clip-rule="evenodd" d="M87.0779 47.0238V35.6422C87.0779 16.2337 71.3442 0.5 51.9357 0.5C32.5272 0.5 16.7935 16.2337 16.7935 35.6422V47.0237C16.7935 64.9269 31.3069 79.4404 49.2101 79.4404H54.6612C72.5644 79.4404 87.0779 64.927 87.0779 47.0238ZM51.9357 0C32.251 0 16.2935 15.9575 16.2935 35.6422V47.0237C16.2935 65.2031 31.0307 79.9404 49.2101 79.9404H54.6612C72.8406 79.9404 87.5779 65.2031 87.5779 47.0238V35.6422C87.5779 15.9576 71.6203 0 51.9357 0Z" fill="black"/>
<path fill-rule="evenodd" clip-rule="evenodd" d="M86.2803 26.0784C85.8643 25.6094 85.3507 24.9432 84.7432 24.1554C81.9511 20.534 77.1762 14.3408 70.7752 12.8923C67.7142 12.1997 64.0181 12.7811 60.1798 13.3849C57.4446 13.8152 54.6371 14.2569 51.9358 14.2569C49.2517 14.2569 46.3759 13.8209 43.5551 13.3932C39.5532 12.7864 35.6622 12.1965 32.5872 12.8923C26.1029 14.3597 21.4759 20.696 18.8474 24.2955C18.3814 24.9336 17.9782 25.4857 17.6387 25.9095C21.8739 10.9556 35.6254 0 51.9358 0C68.3075 0 82.1011 11.0382 86.2803 26.0784Z" fill="#634A3F"/>
<path fill-rule="evenodd" clip-rule="evenodd" d="M70.7752 12.8923C77.1762 14.3408 81.9511 20.534 84.7432 24.1554C85.0009 24.4895 85.2416 24.8018 85.4652 25.0864C85.7688 25.4728 86.0407 25.8083 86.2803 26.0784C86.1656 25.6655 86.0436 25.2556 85.9145 24.8488C81.3417 10.4404 67.858 0 51.9358 0C36.1345 0 22.7349 10.2824 18.0629 24.5211C17.9123 24.9798 17.7709 25.4427 17.6387 25.9095C17.8943 25.5905 18.1859 25.1988 18.5133 24.7525C18.6208 24.6058 18.7322 24.4533 18.8474 24.2955L18.8474 24.2955C21.4759 20.696 26.1029 14.3597 32.5872 12.8923C32.9136 12.8185 33.2493 12.7591 33.5933 12.7127C36.4896 12.3219 39.9781 12.8508 43.5551 13.3932C43.6457 13.4069 43.7364 13.4207 43.8271 13.4344C46.5604 13.8484 49.3379 14.2569 51.9358 14.2569C54.5433 14.2569 57.2498 13.8454 59.8947 13.4298C59.9898 13.4148 60.0849 13.3999 60.1798 13.3849C63.6116 12.8451 66.9296 12.3231 69.7818 12.7136C70.1197 12.7599 70.451 12.819 70.7752 12.8923ZM19.0909 23.1176C20.3368 21.4301 21.954 19.3374 23.924 17.4347C26.2538 15.1845 29.1103 13.1665 32.4768 12.4047C35.6441 11.6879 39.6113 12.2895 43.5561 12.8876L43.6301 12.8988C46.4592 13.3278 49.2964 13.7569 51.9358 13.7569C54.5911 13.7569 57.3591 13.3225 60.1021 12.891L60.1718 12.88C63.9563 12.2846 67.7309 11.6908 70.8856 12.4047C74.2068 13.1562 77.0778 15.1307 79.4533 17.3431C81.7374 19.4705 83.5948 21.8482 84.9735 23.6352C80.0674 10.139 67.1267 0.5 51.9358 0.5C36.9398 0.5 24.1366 9.89318 19.0909 23.1176Z" fill="black"/>
<path d="M39.7156 44.2981C39.7156 46.2666 38.3478 47.8623 36.6605 47.8623C34.9733 47.8623 33.6055 46.2666 33.6055 44.2981C33.6055 42.3296 34.9733 40.7339 36.6605 40.7339C38.3478 40.7339 39.7156 42.3296 39.7156 44.2981Z" fill="#0A230E"/>
<path fill-rule="evenodd" clip-rule="evenodd" d="M36.6605 47.3623C38.0021 47.3623 39.2156 46.0655 39.2156 44.2981C39.2156 42.5307 38.0021 41.2339 36.6605 41.2339C35.3189 41.2339 34.1055 42.5307 34.1055 44.2981C34.1055 46.0655 35.3189 47.3623 36.6605 47.3623ZM36.6605 47.8623C38.3478 47.8623 39.7156 46.2666 39.7156 44.2981C39.7156 42.3296 38.3478 40.7339 36.6605 40.7339C34.9733 40.7339 33.6055 42.3296 33.6055 44.2981C33.6055 46.2666 34.9733 47.8623 36.6605 47.8623Z" fill="black"/>
<path d="M70.2659 44.2981C70.2659 46.2666 68.8981 47.8623 67.2108 47.8623C65.5236 47.8623 64.1558 46.2666 64.1558 44.2981C64.1558 42.3296 65.5236 40.7339 67.2108 40.7339C68.8981 40.7339 70.2659 42.3296 70.2659 44.2981Z" fill="#0A230E"/>
<path fill-rule="evenodd" clip-rule="evenodd" d="M67.2108 47.3623C68.5524 47.3623 69.7659 46.0655 69.7659 44.2981C69.7659 42.5307 68.5524 41.2339 67.2108 41.2339C65.8692 41.2339 64.6558 42.5307 64.6558 44.2981C64.6558 46.0655 65.8692 47.3623 67.2108 47.3623ZM67.2108 47.8623C68.8981 47.8623 70.2659 46.2666 70.2659 44.2981C70.2659 42.3296 68.8981 40.7339 67.2108 40.7339C65.5236 40.7339 64.1558 42.3296 64.1558 44.2981C64.1558 46.2666 65.5236 47.8623 67.2108 47.8623Z" fill="black"/>
<path d="M79.8676 60.7185C79.2126 63.1632 75.2226 64.2181 70.9558 63.0748C66.6889 61.9315 63.761 59.0229 64.416 56.5783C65.071 54.1336 69.061 53.0787 73.3279 54.222C77.5947 55.3653 80.5227 58.2739 79.8676 60.7185Z" fill="#ED4646"/>
<path fill-rule="evenodd" clip-rule="evenodd" d="M76.6383 62.7588C78.1679 62.3543 79.1235 61.564 79.3847 60.5891C79.6459 59.6143 79.2135 58.452 78.0911 57.337C76.98 56.2332 75.2632 55.2582 73.1985 54.7049C71.1337 54.1517 69.1594 54.1377 67.6453 54.538C66.1157 54.9425 65.1602 55.7328 64.899 56.7077C64.6377 57.6825 65.0701 58.8448 66.1925 59.9598C67.3036 61.0636 69.0204 62.0386 71.0852 62.5919C73.1499 63.1451 75.1242 63.1591 76.6383 62.7588ZM70.9558 63.0748C75.2226 64.2181 79.2126 63.1632 79.8676 60.7185C80.5227 58.2739 77.5947 55.3653 73.3279 54.222C69.061 53.0787 65.071 54.1336 64.416 56.5783C63.761 59.0229 66.6889 61.9315 70.9558 63.0748Z" fill="black"/>
<path d="M39.9642 56.5781C40.6193 59.0228 37.8473 61.8896 33.7729 62.9813C29.6985 64.073 25.8645 62.9763 25.2095 60.5316C24.5545 58.087 27.3264 55.2202 31.4008 54.1285C35.4752 53.0367 39.3092 54.1335 39.9642 56.5781Z" fill="#ED4646"/>
<path fill-rule="evenodd" clip-rule="evenodd" d="M38.2827 59.9395C39.3381 58.8479 39.7455 57.6936 39.4813 56.7075C39.2171 55.7215 38.2871 54.9255 36.8273 54.5079C35.3786 54.0935 33.4949 54.085 31.5302 54.6114C29.5655 55.1379 27.9385 56.087 26.8911 57.1703C25.8356 58.2619 25.4283 59.4162 25.6925 60.4022C25.9567 61.3883 26.8866 62.1843 28.3465 62.6019C29.7952 63.0163 31.6788 63.0248 33.6435 62.4983C35.6082 61.9719 37.2353 61.0227 38.2827 59.9395ZM33.7729 62.9813C37.8473 61.8896 40.6193 59.0228 39.9642 56.5781C39.3092 54.1335 35.4752 53.0367 31.4008 54.1285C27.3264 55.2202 24.5545 58.087 25.2095 60.5316C25.8645 62.9763 29.6985 64.073 33.7729 62.9813Z" fill="black"/>
<path fill-rule="evenodd" clip-rule="evenodd" d="M31.7491 37.1432L31.7959 36.6454L31.8075 36.6465L31.8411 36.6497C31.8705 36.6526 31.9138 36.6569 31.9697 36.6626C32.0815 36.6739 32.2437 36.6909 32.4457 36.7134C32.8497 36.7583 33.4133 36.8253 34.0522 36.9135C35.3268 37.0893 36.913 37.351 38.1283 37.6929C39.207 37.9964 40.5361 38.5158 41.5894 38.9561C42.1174 39.1768 42.5786 39.3787 42.9078 39.5255C43.0725 39.5989 43.2042 39.6585 43.2949 39.6998L43.3991 39.7476L43.4262 39.7601L43.435 39.7641L43.2251 40.2179L43.2164 40.2139L43.19 40.2018L43.0875 40.1548C42.9979 40.114 42.8675 40.0549 42.7042 39.9822C42.3777 39.8366 41.9202 39.6363 41.3966 39.4174C40.3467 38.9785 39.0409 38.469 37.9929 38.1742C36.8123 37.842 35.2544 37.5841 33.9839 37.4088C33.3503 37.3214 32.7911 37.2549 32.3904 37.2103C32.1901 37.188 32.0295 37.1712 31.9191 37.16C31.8639 37.1544 31.8213 37.1502 31.7925 37.1473L31.7599 37.1442L31.7491 37.1432Z" fill="black"/>
<path fill-rule="evenodd" clip-rule="evenodd" d="M71.1607 37.4088C69.8902 37.5841 68.3324 37.8421 67.1517 38.1742C66.1037 38.4691 64.7979 38.9785 63.748 39.4174C63.2244 39.6363 62.7669 39.8366 62.4404 39.9822C62.2771 40.055 62.1467 40.114 62.0572 40.1548L61.9546 40.2018L61.9282 40.2139L61.92 40.2178L61.709 39.7644L61.7184 39.7601L61.7455 39.7476L61.8498 39.6999C61.9404 39.6585 62.0721 39.5989 62.2368 39.5255C62.566 39.3788 63.0272 39.1769 63.5552 38.9561C64.6085 38.5158 65.9376 37.9964 67.0163 37.6929C68.2316 37.351 69.8178 37.0894 71.0924 36.9135C71.7313 36.8254 72.2949 36.7584 72.6989 36.7134C72.9009 36.691 73.0631 36.674 73.1749 36.6626C73.2308 36.6569 73.2741 36.6526 73.3035 36.6498L73.3371 36.6465L73.3479 36.6455L73.3955 37.1432L73.3847 37.1442L73.3521 37.1474C73.3233 37.1502 73.2807 37.1544 73.2255 37.16C73.1151 37.1713 72.9545 37.1881 72.7542 37.2104C72.3535 37.255 71.7943 37.3214 71.1607 37.4088Z" fill="black"/>
<path fill-rule="evenodd" clip-rule="evenodd" d="M47.1399 65.9948C49.089 65.7818 51.5762 65.4167 53.7504 64.8086C54.4329 64.6177 55.1282 64.3898 55.8115 64.143C57.5355 63.5206 59.1768 62.7814 60.337 62.225C60.8474 61.9802 61.264 61.7711 61.5528 61.6233C61.6972 61.5494 61.8096 61.4909 61.8857 61.4509L61.9722 61.4053L61.994 61.3936L62.0007 61.39L62.2376 61.8304L62.2296 61.8346L62.2068 61.8468L62.1182 61.8936C62.0406 61.9343 61.9266 61.9937 61.7806 62.0684C61.4885 62.2179 61.068 62.4289 60.5532 62.6758C59.3845 63.2363 57.7267 63.9831 55.9813 64.6133C55.289 64.8633 54.5818 65.0953 53.885 65.2902C51.6723 65.909 49.154 66.2777 47.1942 66.4918C46.2132 66.599 45.3697 66.6677 44.7713 66.7096C44.4721 66.7306 44.2341 66.7448 44.0706 66.7539C43.9888 66.7584 43.9257 66.7616 43.883 66.7637L43.8342 66.766L43.8217 66.7666L43.8173 66.7668C43.8173 66.7668 43.8172 66.7668 43.8065 66.517L43.7959 66.2672L43.7996 66.2671L43.8114 66.2665L43.8586 66.2643C43.9003 66.2623 43.9624 66.2591 44.043 66.2546C44.2042 66.2457 44.4398 66.2316 44.7364 66.2108C45.3297 66.1693 46.1665 66.1011 47.1399 65.9948Z" fill="black"/>
<path d="M37.6788 45.8257C37.6788 46.3881 37.2229 46.8441 36.6604 46.8441C36.098 46.8441 35.6421 46.3881 35.6421 45.8257C35.6421 45.2633 36.098 44.8074 36.6604 44.8074C37.2229 44.8074 37.6788 45.2633 37.6788 45.8257Z" fill="white"/>
<path fill-rule="evenodd" clip-rule="evenodd" d="M36.6604 46.3441C36.9467 46.3441 37.1788 46.112 37.1788 45.8257C37.1788 45.5394 36.9467 45.3074 36.6604 45.3074C36.3742 45.3074 36.1421 45.5394 36.1421 45.8257C36.1421 46.112 36.3742 46.3441 36.6604 46.3441ZM36.6604 46.8441C37.2229 46.8441 37.6788 46.3881 37.6788 45.8257C37.6788 45.2633 37.2229 44.8074 36.6604 44.8074C36.098 44.8074 35.6421 45.2633 35.6421 45.8257C35.6421 46.3881 36.098 46.8441 36.6604 46.8441Z" fill="black"/>
<path d="M68.2296 45.8257C68.2296 46.3881 67.7736 46.8441 67.2112 46.8441C66.6488 46.8441 66.1929 46.3881 66.1929 45.8257C66.1929 45.2633 66.6488 44.8074 67.2112 44.8074C67.7736 44.8074 68.2296 45.2633 68.2296 45.8257Z" fill="white"/>
<path fill-rule="evenodd" clip-rule="evenodd" d="M67.2112 46.3441C67.4975 46.3441 67.7296 46.112 67.7296 45.8257C67.7296 45.5394 67.4975 45.3074 67.2112 45.3074C66.9249 45.3074 66.6929 45.5394 66.6929 45.8257C66.6929 46.112 66.9249 46.3441 67.2112 46.3441ZM67.2112 46.8441C67.7736 46.8441 68.2296 46.3881 68.2296 45.8257C68.2296 45.2633 67.7736 44.8074 67.2112 44.8074C66.6488 44.8074 66.1929 45.2633 66.1929 45.8257C66.1929 46.3881 66.6488 46.8441 67.2112 46.8441Z" fill="black"/>
<path d="M56.0091 50.9174C56.0091 53.1671 54.1854 54.9908 51.9357 54.9908C49.686 54.9908 47.8623 53.1671 47.8623 50.9174C47.8623 48.6677 49.686 46.844 51.9357 46.844C54.1854 46.844 56.0091 48.6677 56.0091 50.9174Z" fill="#E59A89"/>
<path fill-rule="evenodd" clip-rule="evenodd" d="M51.9357 54.4908C53.9092 54.4908 55.5091 52.8909 55.5091 50.9174C55.5091 48.9439 53.9092 47.344 51.9357 47.344C49.9622 47.344 48.3623 48.9439 48.3623 50.9174C48.3623 52.8909 49.9622 54.4908 51.9357 54.4908ZM51.9357 54.9908C54.1854 54.9908 56.0091 53.1671 56.0091 50.9174C56.0091 48.6677 54.1854 46.844 51.9357 46.844C49.686 46.844 47.8623 48.6677 47.8623 50.9174C47.8623 53.1671 49.686 54.9908 51.9357 54.9908Z" fill="black"/>
<path fill-rule="evenodd" clip-rule="evenodd" d="M50.9219 107.181V89.1055H51.4219V107.181H50.9219Z" fill="black"/>
<path fill-rule="evenodd" clip-rule="evenodd" d="M57.0276 92.156H53.4634V91.656H57.0276V92.156Z" fill="black"/>
<path d="M56.5185 91.906C56.5185 92.609 55.9486 93.1789 55.2456 93.1789C54.5426 93.1789 53.9727 92.609 53.9727 91.906C53.9727 91.203 54.5426 90.6331 55.2456 90.6331C55.9486 90.6331 56.5185 91.203 56.5185 91.906Z" fill="#E6D7BA"/>
<path fill-rule="evenodd" clip-rule="evenodd" d="M55.2456 92.6789C55.6725 92.6789 56.0185 92.3329 56.0185 91.906C56.0185 91.4791 55.6725 91.1331 55.2456 91.1331C54.8187 91.1331 54.4727 91.4791 54.4727 91.906C54.4727 92.3329 54.8187 92.6789 55.2456 92.6789ZM55.2456 93.1789C55.9486 93.1789 56.5185 92.609 56.5185 91.906C56.5185 91.203 55.9486 90.6331 55.2456 90.6331C54.5426 90.6331 53.9727 91.203 53.9727 91.906C53.9727 92.609 54.5426 93.1789 55.2456 93.1789Z" fill="black"/>
<path fill-rule="evenodd" clip-rule="evenodd" d="M57.0276 100.303H53.4634V99.8027H57.0276V100.303Z" fill="black"/>
<path d="M56.5185 100.053C56.5185 100.756 55.9486 101.326 55.2456 101.326C54.5426 101.326 53.9727 100.756 53.9727 100.053C53.9727 99.3497 54.5426 98.7798 55.2456 98.7798C55.9486 98.7798 56.5185 99.3497 56.5185 100.053Z" fill="#E6D7BA"/>
<path fill-rule="evenodd" clip-rule="evenodd" d="M55.2456 100.826C55.6725 100.826 56.0185 100.48 56.0185 100.053C56.0185 99.6258 55.6725 99.2798 55.2456 99.2798C54.8187 99.2798 54.4727 99.6258 54.4727 100.053C54.4727 100.48 54.8187 100.826 55.2456 100.826ZM55.2456 101.326C55.9486 101.326 56.5185 100.756 56.5185 100.053C56.5185 99.3497 55.9486 98.7798 55.2456 98.7798C54.5426 98.7798 53.9727 99.3497 53.9727 100.053C53.9727 100.756 54.5426 101.326 55.2456 101.326Z" fill="black"/>
<path fill-rule="evenodd" clip-rule="evenodd" d="M82.2363 111V103.362H82.7363V111H82.2363Z" fill="black"/>
<path fill-rule="evenodd" clip-rule="evenodd" d="M20.1172 111V103.362H20.6172V111H20.1172Z" fill="black"/>
</svg>
